<?xml version="1.0" encoding="UTF-8" standalone="no"?>
<svg
   xmlns:dc="http://purl.org/dc/elements/1.1/"
   xmlns:cc="http://creativecommons.org/ns#"
   xmlns:rdf="http://www.w3.org/1999/02/22-rdf-syntax-ns#"
   xmlns:svg="http://www.w3.org/2000/svg"
   xmlns="http://www.w3.org/2000/svg"
   xmlns:sodipodi="http://sodipodi.sourceforge.net/DTD/sodipodi-0.dtd"
   xmlns:inkscape="http://www.inkscape.org/namespaces/inkscape"
   sodipodi:docname="analysis.svg"
   inkscape:version="1.0 (4035a4fb49, 2020-05-01)"
   id="svg8"
   version="1.1"
   viewBox="0 0 52.916668 52.916667"
   height="200"
   width="200">
  <defs
     id="defs2" />
  <sodipodi:namedview
     units="px"
     fit-margin-bottom="0"
     fit-margin-right="0"
     fit-margin-left="0"
     fit-margin-top="0"
     inkscape:window-maximized="1"
     inkscape:window-y="-8"
     inkscape:window-x="-8"
     inkscape:window-height="1017"
     inkscape:window-width="1920"
     showgrid="false"
     inkscape:document-rotation="0"
     inkscape:current-layer="layer1"
     inkscape:document-units="mm"
     inkscape:cy="94.255637"
     inkscape:cx="164.59566"
     inkscape:zoom="2"
     inkscape:pageshadow="2"
     inkscape:pageopacity="0.0"
     borderopacity="1.0"
     bordercolor="#666666"
     pagecolor="#ffffff"
     id="base" />
  <metadata
     id="metadata5">
    <rdf:RDF>
      <cc:Work
         rdf:about="">
        <dc:format>image/svg+xml</dc:format>
        <dc:type
           rdf:resource="http://purl.org/dc/dcmitype/StillImage" />
        <dc:title></dc:title>
      </cc:Work>
    </rdf:RDF>
  </metadata>
  <g
     transform="translate(-20.144486,-18.211142)"
     id="layer1"
     inkscape:groupmode="layer"
     inkscape:label="Calque 1">
    <path
       d="m 33.858235,56.599654 2e-6,13.366009"
       style="fill:none;stroke:#0e2431;stroke-width:1.05833;stroke-linecap:round;stroke-linejoin:round;stroke-miterlimit:4;stroke-dasharray:none;stroke-opacity:1"
       id="rect845" />
    <path
       d="M 20.673662,69.590752 V 48.286499 c 0,-4.549665 2.940158,-8.212394 6.592287,-8.212394 v 0 c 3.652126,0 6.592288,3.662729 6.592288,8.212394 l -3e-6,5.442732"
       style="fill:none;stroke:#0e2431;stroke-width:1.05833;stroke-linecap:round;stroke-linejoin:round;stroke-miterlimit:4;stroke-dasharray:none;stroke-opacity:1"
       id="path909" />
    <path
       id="path854"
       d="m 35.190864,31.548384 a 5.7107867,8.2470595 10.627978 0 1 -7.13818,7.042603 5.7107867,8.2470595 10.627978 0 1 -4.084222,-9.166321 5.7107867,8.2470595 10.627978 0 1 7.138179,-7.042601 5.7107867,8.2470595 10.627978 0 1 4.084223,9.166319 z"
       style="fill:#f9fafa;stroke:#0e2431;stroke-width:1.05833;stroke-linecap:round;stroke-linejoin:round;stroke-miterlimit:4;stroke-dasharray:none;stroke-opacity:1" />
    <path
       id="path948"
       style="fill:none;stroke:#0e2431;stroke-width:1.05833;stroke-linecap:round;stroke-linejoin:round;stroke-miterlimit:4;stroke-dasharray:none;stroke-opacity:1"
       d="m 59.187176,57.419862 -3e-6,13.366009" />
    <path
       sodipodi:nodetypes="cssssc"
       id="path950"
       style="fill:none;stroke:#0e2431;stroke-width:1.05833;stroke-linecap:round;stroke-linejoin:round;stroke-miterlimit:4;stroke-dasharray:none;stroke-opacity:1"
       d="m 72.618231,70.41096 1e-6,-21.304253 c 0,-4.549665 -2.995124,-8.212394 -6.715528,-8.212394 v 0 c -3.720403,0 -6.68364,3.662841 -6.715529,8.212394 l -0.03081,4.395426" />
    <path
       style="fill:#f9fafa;stroke:#0e2431;stroke-width:1.05833;stroke-linecap:round;stroke-linejoin:round;stroke-miterlimit:4;stroke-dasharray:none;stroke-opacity:1"
       d="m 57.977788,32.368592 a 8.2470595,5.7107867 79.372022 0 0 7.138181,7.042603 8.2470595,5.7107867 79.372022 0 0 4.084222,-9.166321 8.2470595,5.7107867 79.372022 0 0 -7.13818,-7.042601 8.2470595,5.7107867 79.372022 0 0 -4.084223,9.166319 z"
       id="path952" />
    <path
       id="path861"
       style="color:#000000;font-style:normal;font-variant:normal;font-weight:normal;font-stretch:normal;font-size:medium;line-height:normal;font-family:sans-serif;font-variant-ligatures:normal;font-variant-position:normal;font-variant-caps:normal;font-variant-numeric:normal;font-variant-alternates:normal;font-variant-east-asian:normal;font-feature-settings:normal;font-variation-settings:normal;text-indent:0;text-align:start;text-decoration:none;text-decoration-line:none;text-decoration-style:solid;text-decoration-color:#000000;letter-spacing:normal;word-spacing:normal;text-transform:none;writing-mode:lr-tb;direction:ltr;text-orientation:mixed;dominant-baseline:auto;baseline-shift:baseline;text-anchor:start;white-space:normal;shape-padding:0;shape-margin:0;inline-size:0;clip-rule:nonzero;display:inline;overflow:visible;visibility:visible;opacity:1;isolation:auto;mix-blend-mode:normal;color-interpolation:sRGB;color-interpolation-filters:linearRGB;solid-color:#000000;solid-opacity:1;vector-effect:none;fill:none;fill-opacity:1;fill-rule:nonzero;stroke:#280b0b;stroke-width:1.05833;stroke-linecap:round;stroke-linejoin:miter;stroke-miterlimit:4;stroke-dasharray:none;stroke-dashoffset:0;stroke-opacity:1;color-rendering:auto;image-rendering:auto;shape-rendering:auto;text-rendering:auto;enable-background:accumulate;stop-color:#000000;stop-opacity:1"
       d="m 25.620674,49.484373 c 3.220202,5.446559 7.843449,7.330498 11.580466,7.696162 3.849292,0.376651 6.890486,-0.749461 6.890486,-0.749461 a 1.2324139,1.2321231 0 0 0 0.731444,-1.580782 1.2324139,1.2321231 0 0 0 -1.581155,-0.731271 c 0,0 -2.543994,0.92623 -5.800599,0.607574 -3.190359,-0.312175 -6.937561,-1.715714 -9.773606,-6.62402" />
    <path
       style="color:#000000;font-style:normal;font-variant:normal;font-weight:normal;font-stretch:normal;font-size:medium;line-height:normal;font-family:sans-serif;font-variant-ligatures:normal;font-variant-position:normal;font-variant-caps:normal;font-variant-numeric:normal;font-variant-alternates:normal;font-variant-east-asian:normal;font-feature-settings:normal;font-variation-settings:normal;text-indent:0;text-align:start;text-decoration:none;text-decoration-line:none;text-decoration-style:solid;text-decoration-color:#000000;letter-spacing:normal;word-spacing:normal;text-transform:none;writing-mode:lr-tb;direction:ltr;text-orientation:mixed;dominant-baseline:auto;baseline-shift:baseline;text-anchor:start;white-space:normal;shape-padding:0;shape-margin:0;inline-size:0;clip-rule:nonzero;display:inline;overflow:visible;visibility:visible;opacity:1;isolation:auto;mix-blend-mode:normal;color-interpolation:sRGB;color-interpolation-filters:linearRGB;solid-color:#000000;solid-opacity:1;vector-effect:none;fill:none;fill-opacity:1;fill-rule:nonzero;stroke:#000000;stroke-width:1.05833;stroke-linecap:round;stroke-linejoin:miter;stroke-miterlimit:4;stroke-dasharray:none;stroke-dashoffset:0;stroke-opacity:1;color-rendering:auto;image-rendering:auto;shape-rendering:auto;text-rendering:auto;enable-background:accumulate;stop-color:#000000;stop-opacity:1"
       d="m 56.308898,41.852416 a 1.2324154,1.563895 0 0 0 -0.989814,0.572607 c -1.870333,2.890367 -2.159036,6.707192 -2.085159,9.743558 0.07388,3.036368 0.565868,5.442078 0.565868,5.442078 l 0.127365,0.621095 0.434863,0.327862 c 0,0 0.497003,0.323501 1.051678,0.383279 0.554675,0.05978 1.291005,-0.04084 2.172496,-0.484869 1.762983,-0.888067 4.117087,-3.078485 7.278044,-8.212759 a 1.2324154,1.563895 0 0 0 -0.212883,-2.195763 1.2324154,1.563895 0 0 0 -1.730355,0.270141 c -3.00112,4.874653 -5.096748,6.654204 -6.242742,7.231475 -0.328456,0.165453 -0.424578,0.130906 -0.605897,0.159314 -0.119316,-0.687084 -0.325243,-1.601203 -0.374819,-3.638826 -0.06477,-2.662077 0.285053,-5.744632 1.52657,-7.663241 a 1.2324154,1.563895 0 0 0 -0.169215,-2.200381 1.2324154,1.563895 0 0 0 -0.746,-0.35557 z"
       id="path870" />
  </g>
</svg>
