<?xml version="1.0" encoding="UTF-8" standalone="no"?>
<svg
   xmlns:dc="http://purl.org/dc/elements/1.1/"
   xmlns:cc="http://creativecommons.org/ns#"
   xmlns:rdf="http://www.w3.org/1999/02/22-rdf-syntax-ns#"
   xmlns:svg="http://www.w3.org/2000/svg"
   xmlns="http://www.w3.org/2000/svg"
   xmlns:sodipodi="http://sodipodi.sourceforge.net/DTD/sodipodi-0.dtd"
   xmlns:inkscape="http://www.inkscape.org/namespaces/inkscape"
   width="63.065685mm"
   height="53.103905mm"
   viewBox="0 0 63.065685 53.103905"
   version="1.1"
   id="svg8"
   inkscape:version="1.0 (4035a4fb49, 2020-05-01)"
   sodipodi:docname="analysis.svg">
  <defs
     id="defs2" />
  <sodipodi:namedview
     id="base"
     pagecolor="#ffffff"
     bordercolor="#666666"
     borderopacity="1.0"
     inkscape:pageopacity="0.0"
     inkscape:pageshadow="2"
     inkscape:zoom="2"
     inkscape:cx="164.69611"
     inkscape:cy="94.236122"
     inkscape:document-units="mm"
     inkscape:current-layer="layer1"
     inkscape:document-rotation="0"
     showgrid="false"
     inkscape:window-width="1920"
     inkscape:window-height="1017"
     inkscape:window-x="-8"
     inkscape:window-y="-8"
     inkscape:window-maximized="1"
     fit-margin-top="0"
     fit-margin-left="0"
     fit-margin-right="0"
     fit-margin-bottom="0" />
  <metadata
     id="metadata5">
    <rdf:RDF>
      <cc:Work
         rdf:about="">
        <dc:format>image/svg+xml</dc:format>
        <dc:type
           rdf:resource="http://purl.org/dc/dcmitype/StillImage" />
        <dc:title />
      </cc:Work>
    </rdf:RDF>
  </metadata>
  <g
     inkscape:label="Calque 1"
     inkscape:groupmode="layer"
     id="layer1"
     transform="translate(-20.144486,-18.211142)">
    <path
       id="rect845"
       style="fill:none;stroke:#0e2431;stroke-width:1.05833;stroke-linecap:round;stroke-linejoin:round;stroke-miterlimit:4;stroke-dasharray:none;stroke-opacity:1"
       d="m 34.82642,55.55432 3e-6,14.350915" />
    <path
       id="path909"
       style="fill:none;stroke:#0e2431;stroke-width:1.05833;stroke-linecap:round;stroke-linejoin:round;stroke-miterlimit:4;stroke-dasharray:none;stroke-opacity:1"
       d="M 20.673651,69.502698 V 46.628591 c 0,-4.884918 3.156066,-8.817544 7.076385,-8.817544 v 0 c 3.920317,0 7.076386,3.932626 7.076386,8.817544 l -3e-6,5.843792" />
    <path
       style="fill:#f9fafa;stroke:#0e2431;stroke-width:1.05833;stroke-linecap:round;stroke-linejoin:round;stroke-miterlimit:4;stroke-dasharray:none;stroke-opacity:1"
       d="m 36.25691,28.657088 a 6.130202,8.8546925 10.621016 0 1 -7.662366,7.561554 6.130202,8.8546925 10.621016 0 1 -4.384143,-9.841763 6.130202,8.8546925 10.621016 0 1 7.662365,-7.561552 6.130202,8.8546925 10.621016 0 1 4.384144,9.841761 z"
       id="path854" />
    <path
       d="m 68.263652,56.434967 -3e-6,14.350915"
       style="fill:none;stroke:#0e2431;stroke-width:1.05833;stroke-linecap:round;stroke-linejoin:round;stroke-miterlimit:4;stroke-dasharray:none;stroke-opacity:1"
       id="path948" />
    <path
       d="m 82.681004,70.383345 10e-7,-22.874107 c 0,-4.884918 -3.215068,-8.817544 -7.208677,-8.817544 v 0 c -3.993607,0 -7.174446,3.932746 -7.208677,8.817544 l -0.03307,4.719313"
       style="fill:none;stroke:#0e2431;stroke-width:1.05833;stroke-linecap:round;stroke-linejoin:round;stroke-miterlimit:4;stroke-dasharray:none;stroke-opacity:1"
       id="path950"
       sodipodi:nodetypes="cssssc" />
    <path
       id="path952"
       d="m 66.965454,29.537735 a 8.8546925,6.130202 79.378984 0 0 7.662366,7.561554 8.8546925,6.130202 79.378984 0 0 4.384143,-9.841763 8.8546925,6.130202 79.378984 0 0 -7.662365,-7.561552 8.8546925,6.130202 79.378984 0 0 -4.384144,9.841761 z"
       style="fill:#f9fafa;stroke:#0e2431;stroke-width:1.05833;stroke-linecap:round;stroke-linejoin:round;stroke-miterlimit:4;stroke-dasharray:none;stroke-opacity:1" />
    <path
       d="m 25.983942,47.914733 c 3.456674,5.847901 8.419425,7.870663 12.430866,8.263272 4.131961,0.404405 7.396482,-0.804687 7.396482,-0.804687 a 1.322915,1.322915 0 0 0 0.785157,-1.697266 1.322915,1.322915 0 0 0 -1.697265,-0.785156 c 0,0 -2.73081,0.994481 -6.226561,0.652344 C 35.247981,53.208062 31.225607,51.7011 28.1813,46.431114"
       style="color:#000000;font-style:normal;font-variant:normal;font-weight:normal;font-stretch:normal;font-size:medium;line-height:normal;font-family:sans-serif;font-variant-ligatures:normal;font-variant-position:normal;font-variant-caps:normal;font-variant-numeric:normal;font-variant-alternates:normal;font-variant-east-asian:normal;font-feature-settings:normal;font-variation-settings:normal;text-indent:0;text-align:start;text-decoration:none;text-decoration-line:none;text-decoration-style:solid;text-decoration-color:#000000;letter-spacing:normal;word-spacing:normal;text-transform:none;writing-mode:lr-tb;direction:ltr;text-orientation:mixed;dominant-baseline:auto;baseline-shift:baseline;text-anchor:start;white-space:normal;shape-padding:0;shape-margin:0;inline-size:0;clip-rule:nonzero;display:inline;overflow:visible;visibility:visible;opacity:1;isolation:auto;mix-blend-mode:normal;color-interpolation:sRGB;color-interpolation-filters:linearRGB;solid-color:#000000;solid-opacity:1;vector-effect:none;fill:none;fill-opacity:1;fill-rule:nonzero;stroke:#280b0b;stroke-width:1.05833;stroke-linecap:round;stroke-linejoin:miter;stroke-miterlimit:4;stroke-dasharray:none;stroke-dashoffset:0;stroke-opacity:1;color-rendering:auto;image-rendering:auto;shape-rendering:auto;text-rendering:auto;enable-background:accumulate;stop-color:#000000;stop-opacity:1"
       id="path861" />
    <path
       id="path870"
       d="m 65.174011,39.720397 a 1.3229166,1.6791343 0 0 0 -1.0625,0.614801 c -2.00768,3.103351 -2.317583,7.201427 -2.238281,10.461535 0.0793,3.26011 0.607422,5.84309 0.607422,5.84309 l 0.136718,0.666862 0.466797,0.352022 c 0,0 0.533499,0.347339 1.128906,0.411521 0.595408,0.06419 1.385809,-0.04385 2.332032,-0.520597 1.892446,-0.953507 4.419421,-3.305331 7.8125,-8.817936 a 1.3229166,1.6791343 0 0 0 -0.228516,-2.357563 1.3229166,1.6791343 0 0 0 -1.857422,0.290047 c -3.221504,5.233854 -5.471023,7.144535 -6.701172,7.764344 -0.352576,0.177644 -0.455756,0.140552 -0.65039,0.171053 -0.128078,-0.737714 -0.349127,-1.719192 -0.402344,-3.906962 -0.06953,-2.858238 0.305986,-6.167938 1.638672,-8.227924 a 1.3229166,1.6791343 0 0 0 -0.181641,-2.362522 1.3229166,1.6791343 0 0 0 -0.800781,-0.381771 z"
       style="color:#000000;font-style:normal;font-variant:normal;font-weight:normal;font-stretch:normal;font-size:medium;line-height:normal;font-family:sans-serif;font-variant-ligatures:normal;font-variant-position:normal;font-variant-caps:normal;font-variant-numeric:normal;font-variant-alternates:normal;font-variant-east-asian:normal;font-feature-settings:normal;font-variation-settings:normal;text-indent:0;text-align:start;text-decoration:none;text-decoration-line:none;text-decoration-style:solid;text-decoration-color:#000000;letter-spacing:normal;word-spacing:normal;text-transform:none;writing-mode:lr-tb;direction:ltr;text-orientation:mixed;dominant-baseline:auto;baseline-shift:baseline;text-anchor:start;white-space:normal;shape-padding:0;shape-margin:0;inline-size:0;clip-rule:nonzero;display:inline;overflow:visible;visibility:visible;opacity:1;isolation:auto;mix-blend-mode:normal;color-interpolation:sRGB;color-interpolation-filters:linearRGB;solid-color:#000000;solid-opacity:1;vector-effect:none;fill:none;fill-opacity:1;fill-rule:nonzero;stroke:#000000;stroke-width:1.05833;stroke-linecap:round;stroke-linejoin:miter;stroke-miterlimit:4;stroke-dasharray:none;stroke-dashoffset:0;stroke-opacity:1;color-rendering:auto;image-rendering:auto;shape-rendering:auto;text-rendering:auto;enable-background:accumulate;stop-color:#000000;stop-opacity:1" />
  </g>
</svg>
