<?xml version="1.0" encoding="UTF-8" standalone="no"?>
<svg
   xmlns:dc="http://purl.org/dc/elements/1.1/"
   xmlns:cc="http://creativecommons.org/ns#"
   xmlns:rdf="http://www.w3.org/1999/02/22-rdf-syntax-ns#"
   xmlns:svg="http://www.w3.org/2000/svg"
   xmlns="http://www.w3.org/2000/svg"
   xmlns:sodipodi="http://sodipodi.sourceforge.net/DTD/sodipodi-0.dtd"
   xmlns:inkscape="http://www.inkscape.org/namespaces/inkscape"
   sodipodi:docname="puzzle.svg"
   inkscape:version="1.0 (4035a4fb49, 2020-05-01)"
   id="svg8"
   version="1.1"
   viewBox="0 0 52.916666 52.916668"
   height="200"
   width="200">
  <defs
     id="defs2" />
  <sodipodi:namedview
     units="px"
     fit-margin-bottom="0"
     fit-margin-right="0"
     fit-margin-left="0"
     fit-margin-top="0"
     inkscape:snap-nodes="false"
     inkscape:snap-others="false"
     inkscape:snap-intersection-paths="true"
     inkscape:object-paths="true"
     inkscape:snap-object-midpoints="true"
     inkscape:snap-center="true"
     inkscape:window-maximized="1"
     inkscape:window-y="-8"
     inkscape:window-x="-8"
     inkscape:window-height="1017"
     inkscape:window-width="1920"
     showborder="true"
     showgrid="false"
     inkscape:document-rotation="0"
     inkscape:current-layer="layer1"
     inkscape:document-units="mm"
     inkscape:cy="103.28938"
     inkscape:cx="51.973174"
     inkscape:zoom="2"
     inkscape:pageshadow="2"
     inkscape:pageopacity="0.0"
     borderopacity="1.0"
     bordercolor="#666666"
     pagecolor="#ffffff"
     id="base" />
  <metadata
     id="metadata5">
    <rdf:RDF>
      <cc:Work
         rdf:about="">
        <dc:format>image/svg+xml</dc:format>
        <dc:type
           rdf:resource="http://purl.org/dc/dcmitype/StillImage" />
        <dc:title></dc:title>
      </cc:Work>
    </rdf:RDF>
  </metadata>
  <g
     id="layer1"
     inkscape:groupmode="layer"
     inkscape:label="Calque 1"
     transform="translate(-0.16146,-10.58275)">
    <g
       transform="translate(-0.03805019,5.1230733)"
       id="g836">
      <path
         id="rect935"
         style="fill:none;fill-opacity:1;stroke:#0e2431;stroke-width:1;stroke-linecap:round;stroke-miterlimit:4;stroke-dasharray:none;stroke-opacity:1"
         d="M 0.66927529,11.090593 V 31.888926 H 6.9984209 a 4.1138555,4.0966418 0 0 1 4.1137171,-4.061628 4.1138555,4.0966418 0 0 1 4.113581,4.061628 h 6.329282 v -6.302525 a 4.1138554,4.0966417 0 0 0 4.113854,-4.096642 4.1138554,4.0966417 0 0 0 -4.113854,-4.096641 v -6.302525 z" />
      <path
         d="M 0.66927529,52.745427 H 21.49675 V 46.425138 A 4.1023819,4.1080993 0 0 1 17.429432,42.317176 4.1023819,4.1080993 0 0 1 21.49675,38.209352 V 31.888926 H 15.185394 A 4.1023818,4.1080993 0 0 0 11.083013,27.780828 4.1023818,4.1080993 0 0 0 6.9806311,31.888926 H 0.66927529 Z"
         style="fill:none;fill-opacity:1;stroke:#0e2431;stroke-width:1;stroke-linecap:round;stroke-miterlimit:4;stroke-dasharray:none;stroke-opacity:1"
         id="path958" />
      <path
         d="m 52.533291,17.709261 -20.109646,-5.413293 -1.647319,6.102457 a 4.1016863,4.108796 27.074523 0 1 2.856436,5.023521 4.1016863,4.108796 27.074523 0 1 -4.997799,2.909104 l -1.647356,6.10259 6.093831,1.640391 a 4.1016862,4.1087959 27.074523 0 0 2.890256,5.032765 4.1016862,4.1087959 27.074523 0 0 5.031725,-2.900256 l 6.093832,1.640392 z"
         style="fill:none;fill-opacity:1;stroke:#0e2431;stroke-width:1;stroke-linecap:round;stroke-miterlimit:4;stroke-dasharray:none;stroke-opacity:1"
         id="path960" />
    </g>
  </g>
</svg>
