<?xml version="1.0" encoding="UTF-8" standalone="no"?>
<svg
   xmlns:dc="http://purl.org/dc/elements/1.1/"
   xmlns:cc="http://creativecommons.org/ns#"
   xmlns:rdf="http://www.w3.org/1999/02/22-rdf-syntax-ns#"
   xmlns:svg="http://www.w3.org/2000/svg"
   xmlns="http://www.w3.org/2000/svg"
   xmlns:sodipodi="http://sodipodi.sourceforge.net/DTD/sodipodi-0.dtd"
   xmlns:inkscape="http://www.inkscape.org/namespaces/inkscape"
   sodipodi:docname="puzzle.svg"
   inkscape:version="1.0 (4035a4fb49, 2020-05-01)"
   id="svg8"
   version="1.1"
   viewBox="0 0 52.916666 52.916668"
   height="200"
   width="200">
  <defs
     id="defs2" />
  <sodipodi:namedview
     units="px"
     fit-margin-bottom="0"
     fit-margin-right="0"
     fit-margin-left="0"
     fit-margin-top="0"
     inkscape:snap-nodes="false"
     inkscape:snap-others="false"
     inkscape:snap-intersection-paths="true"
     inkscape:object-paths="true"
     inkscape:snap-object-midpoints="true"
     inkscape:snap-center="true"
     inkscape:window-maximized="1"
     inkscape:window-y="-8"
     inkscape:window-x="-8"
     inkscape:window-height="1017"
     inkscape:window-width="1920"
     showborder="true"
     showgrid="false"
     inkscape:document-rotation="0"
     inkscape:current-layer="layer1"
     inkscape:document-units="mm"
     inkscape:cy="103.28938"
     inkscape:cx="51.973174"
     inkscape:zoom="2"
     inkscape:pageshadow="2"
     inkscape:pageopacity="0.0"
     borderopacity="1.0"
     bordercolor="#666666"
     pagecolor="#ffffff"
     id="base" />
  <metadata
     id="metadata5">
    <rdf:RDF>
      <cc:Work
         rdf:about="">
        <dc:format>image/svg+xml</dc:format>
        <dc:type
           rdf:resource="http://purl.org/dc/dcmitype/StillImage" />
        <dc:title />
      </cc:Work>
    </rdf:RDF>
  </metadata>
  <g
     id="layer1"
     inkscape:groupmode="layer"
     inkscape:label="Calque 1"
     transform="translate(-0.16146,-10.58275)">
    <path
       style="color:#000000;font-style:normal;font-variant:normal;font-weight:normal;font-stretch:normal;font-size:medium;line-height:normal;font-family:sans-serif;font-variant-ligatures:normal;font-variant-position:normal;font-variant-caps:normal;font-variant-numeric:normal;font-variant-alternates:normal;font-variant-east-asian:normal;font-feature-settings:normal;font-variation-settings:normal;text-indent:0;text-align:start;text-decoration:none;text-decoration-line:none;text-decoration-style:solid;text-decoration-color:#000000;letter-spacing:normal;word-spacing:normal;text-transform:none;writing-mode:lr-tb;direction:ltr;text-orientation:mixed;dominant-baseline:auto;baseline-shift:baseline;text-anchor:start;white-space:normal;shape-padding:0;shape-margin:0;inline-size:0;clip-rule:nonzero;display:inline;overflow:visible;visibility:visible;isolation:auto;mix-blend-mode:normal;color-interpolation:sRGB;color-interpolation-filters:linearRGB;solid-color:#000000;solid-opacity:1;vector-effect:none;fill:#0e2431;fill-opacity:1;fill-rule:nonzero;stroke:none;stroke-width:0.529;stroke-linecap:round;stroke-linejoin:miter;stroke-miterlimit:4;stroke-dasharray:none;stroke-dashoffset:0;stroke-opacity:1;color-rendering:auto;image-rendering:auto;shape-rendering:auto;text-rendering:auto;enable-background:accumulate;stop-color:#000000"
       d="M 0.36624669,15.949245 V 16.212917 37.27737 H 7.2217154 l 0.00391,-0.263672 c 0.018076,-2.106034 1.7309037,-3.798834 3.8476566,-3.798828 2.116703,6.4e-5 3.831533,1.692844 3.84961,3.798828 l 0.002,0.263672 h 6.857421 v -6.355469 c 2.28435,-0.144232 4.113282,-1.996288 4.113282,-4.308594 -1e-6,-2.312304 -1.828932,-4.164362 -4.113282,-4.308593 v -6.355469 z m 0.52929687,0.529297 H 21.252966 v 6.302734 h 0.263672 c 2.12967,1e-6 3.849609,1.713066 3.849609,3.832031 0,2.118966 -1.719939,3.832031 -3.849609,3.832032 h -0.263672 v 6.302734 h -5.855469 c -0.16222,-2.262137 -2.01764,-4.062431 -4.324219,-4.0625 -2.3067362,-7e-6 -4.1601878,1.800168 -4.3222657,4.0625 H 0.89554356 Z"
       id="path836" />
    <path
       style="color:#000000;font-style:normal;font-variant:normal;font-weight:normal;font-stretch:normal;font-size:medium;line-height:normal;font-family:sans-serif;font-variant-ligatures:normal;font-variant-position:normal;font-variant-caps:normal;font-variant-numeric:normal;font-variant-alternates:normal;font-variant-east-asian:normal;font-feature-settings:normal;font-variation-settings:normal;text-indent:0;text-align:start;text-decoration:none;text-decoration-line:none;text-decoration-style:solid;text-decoration-color:#000000;letter-spacing:normal;word-spacing:normal;text-transform:none;writing-mode:lr-tb;direction:ltr;text-orientation:mixed;dominant-baseline:auto;baseline-shift:baseline;text-anchor:start;white-space:normal;shape-padding:0;shape-margin:0;inline-size:0;clip-rule:nonzero;display:inline;overflow:visible;visibility:visible;isolation:auto;mix-blend-mode:normal;color-interpolation:sRGB;color-interpolation-filters:linearRGB;solid-color:#000000;solid-opacity:1;vector-effect:none;fill:#0e2431;fill-opacity:1;fill-rule:nonzero;stroke:none;stroke-width:0.529;stroke-linecap:round;stroke-linejoin:miter;stroke-miterlimit:4;stroke-dasharray:none;stroke-dashoffset:0;stroke-opacity:1;color-rendering:auto;image-rendering:auto;shape-rendering:auto;text-rendering:auto;enable-background:accumulate;stop-color:#000000"
       d="m 11.045934,32.638698 c -2.3155267,0 -4.1708185,1.826926 -4.314453,4.109375 H 0.36624669 v 21.384766 h 0.265625 21.09179731 v -6.847657 l -0.263672,-0.002 c -2.109584,-0.01806 -3.804694,-1.730554 -3.804688,-3.84375 6.5e-5,-2.113145 1.695154,-3.82374 3.804688,-3.841797 l 0.263672,-0.0039 v -6.845662 h -6.365235 c -0.143634,-2.282448 -1.996973,-4.109375 -4.3125,-4.109375 z m 0,0.529297 c 2.122537,0 3.835937,1.717658 3.835938,3.84375 v 0.265625 h 6.3125 v 5.845703 c -2.264905,0.161857 -4.068289,2.012402 -4.06836,4.316406 -7e-6,2.304081 1.803373,4.156527 4.06836,4.31836 v 5.845703 H 0.89554356 V 37.27737 H 7.2080436 v -0.265625 c 6e-7,-2.126093 1.7153537,-3.84375 3.8378904,-3.84375 z"
       id="path840" />
    <path
       style="color:#000000;font-style:normal;font-variant:normal;font-weight:normal;font-stretch:normal;font-size:medium;line-height:normal;font-family:sans-serif;font-variant-ligatures:normal;font-variant-position:normal;font-variant-caps:normal;font-variant-numeric:normal;font-variant-alternates:normal;font-variant-east-asian:normal;font-feature-settings:normal;font-variation-settings:normal;text-indent:0;text-align:start;text-decoration:none;text-decoration-line:none;text-decoration-style:solid;text-decoration-color:#000000;letter-spacing:normal;word-spacing:normal;text-transform:none;writing-mode:lr-tb;direction:ltr;text-orientation:mixed;dominant-baseline:auto;baseline-shift:baseline;text-anchor:start;white-space:normal;shape-padding:0;shape-margin:0;inline-size:0;clip-rule:nonzero;display:inline;overflow:visible;visibility:visible;isolation:auto;mix-blend-mode:normal;color-interpolation:sRGB;color-interpolation-filters:linearRGB;solid-color:#000000;solid-opacity:1;vector-effect:none;fill:#fbb13c;fill-opacity:1;fill-rule:nonzero;stroke:none;stroke-width:0.52890208;stroke-linecap:round;stroke-linejoin:miter;stroke-miterlimit:4;stroke-dasharray:none;stroke-dashoffset:0;stroke-opacity:1;color-rendering:auto;image-rendering:auto;shape-rendering:auto;text-rendering:auto;enable-background:accumulate;stop-color:#000000"
       d="m 32.198278,17.095729 -1.783203,6.609375 0.251953,0.07031 c 2.032129,0.565727 3.222676,2.660771 2.671875,4.701172 -0.550843,2.040336 -2.634284,3.25155 -4.675781,2.720703 l -0.253906,-0.06445 -1.783204,6.611328 6.144532,1.654297 c -0.45531,2.240612 0.858475,4.484226 3.09375,5.085937 2.235084,0.601659 4.500093,-0.678545 5.234375,-2.84375 l 6.146484,1.654297 5.574219,-20.648437 -0.25586,-0.07031 z m 0.373047,0.646485 19.599609,5.277343 -5.298828,19.626954 -6.09375,-1.640626 -0.06836,0.253907 c -0.554156,2.052854 -2.657688,3.266503 -4.707031,2.714843 -2.049344,-0.55166 -3.259233,-2.656129 -2.705078,-4.708984 l 0.07031,-0.255859 -6.095703,-1.640625 1.525391,-5.642578 c 2.22888,0.432118 4.452204,-0.888905 5.052734,-3.113282 0.600527,-2.224606 -0.657988,-4.479607 -2.802734,-5.224609 z"
       id="path844" />
  </g>
</svg>
